<svg id="Layer_1" data-name="Layer 1" xmlns="http://www.w3.org/2000/svg" 
viewBox="0 0 49.95 24.01">
        <defs>
            <style>.cls-1{fill:#fff}</style>
        </defs>
    <g id="miu">
        <g id="editor_list_view_hambuger_menu_glyph" 
        data-name="editor list view hambuger menu glyph">
            <path id="path-1" class="cls-1" d="M1.14 0A1.07 1.07 0 0 0 0 1v2a1.07 
            1.07 0 0 0 1.14 1h47.67A1.07 1.07 0 0 0 50 3V1a1.07 1.07 0 0 0-1.14-1zm0 
            10A1.07 1.07 0 0 0 0 11v2a1.07 1.07 0 0 0 1.14 1h47.67A1.06 1.06 0 0 0 50 
            13v-2a1.08 1.08 0 0 0-1.14-1zm0 10A1.06 1.06 0 0 0 0 21v2a1.07 1.07 0 0 0 
            1.14 1h47.67A1.07 1.07 0 0 0 50 23v-2a1.07 1.07 0 0 0-1.14-1z"/>
            <path id="path-1-2" data-name="path-1" class="cls-1" d="M1.14 0A1.07 1.07 
            0 0 0 0 1v2a1.07 1.07 0 0 0 1.14 1h47.67A1.07 1.07 0 0 0 50 3V1a1.07 1.07 
            0 0 0-1.14-1zm0 10A1.07 1.07 0 0 0 0 11v2a1.07 1.07 0 0 0 1.14 1h47.67A1.06 
            1.06 0 0 0 50 13v-2a1.08 1.08 0 0 0-1.14-1zm0 10A1.06 1.06 0 0 0 0 21v2a1.07 
            1.07 0 0 0 1.14 1h47.67A1.07 1.07 0 0 0 50 23v-2a1.07 1.07 0 0 0-1.14-1z"/>
        </g>
    </g>
</svg>