<svg xmlns="http://www.w3.org/2000/svg" viewBox="0 0 298 345.1">
    <defs>
        <style>.cls-1{fill:#d22856;}.cls-2{fill:#f32357;fill-rule:evenodd;}</style>
    </defs>
    <title>timer24</title>
    <path fill="#dedede" d="M264.57,102.06l5.35-5.36c7.72-7.72,9.13-18.94,3.13-24.93s-17.22-4.6-24.93,
    3.12l-5.39,5.39A148.19,148.19,0,0,0,168,48.3V38.71h7.66c10.91,0,19.84-8.71,
    19.84-19.35S186.57,0,175.66,0H122.34C111.43,0,102.5,8.71,102.5,19.36s8.93,
    19.35,19.84,19.35H130V48.3a149,149,0,1,0,134.57,53.76ZM149,306.26A110.17,
    110.17,0,1,1,259.17,196.1,110.17,110.17,0,0,1,149,306.26Z"/>
    <path class="cls-1" d="M149,70.15a126.5,126.5,0,1,0,126.5,126.5A126.5,126.5,
    0,0,0,149,70.15Zm0,237.21A110.17,110.17,0,1,1,259.17,197.19,110.17,110.17,0,
    0,1,149,307.36Z"/>
    <g id="_24" data-name="24"><path class="cls-2" d="M103.31,225.56l11.85-11.15Q127,
    203.57,131.7,197.7a45.78,45.78,0,0,0,6.93-11.43,31.83,31.83,0,0,0,2.24-12,
    23.41,23.41,0,0,0-3.66-13,24.29,24.29,0,0,0-10.27-8.82,35.07,35.07,0,0,
    0-15.25-3.15,50.14,50.14,0,0,0-11.85,1.29,41.74,41.74,0,0,0-9.77,3.68,69.36,
    69.36,0,0,0-11.28,8.2l10.59,12.54a53.45,53.45,0,0,1,10.53-7,23.4,23.4,0,0,1,
    10.39-2.45,11.85,11.85,0,0,1,8.17,2.71q3,2.7,3,8.25a19.27,19.27,0,0,1-1.38,
    7.19,32.34,32.34,0,0,1-4.54,7.53q-3.15,4.06-13.43,14.59L79,
    229.28v13.55h64.41V226.44H103.31Zm104.81-16.95V150.69h-18l-40.39,
    59.49v13.55h39.32v19.1h19v-19.1h11.09V208.61Zm-18.72-27q-.32,7.44-.32,
    11.35v15.63H166.9l16.89-25.53A71.15,71.15,0,0,0,189.4,173h.5Q189.72,
    174.2,189.4,181.63Z"/></g>
</svg>