<svg xmlns="http://www.w3.org/2000/svg" viewBox="0 0 298 345.1">
    <g width="298" height="345">
        <path d="M264.57 102.06l5.35-5.36c7.72-7.72 9.13-18.94 3.13-24.93s-17.22-4.6-24.93 
        3.12l-5.39 5.39A148.19 148.19 0 0 0 168 48.3v-9.59h7.66c10.91 0 19.84-8.71 
        19.84-19.35S186.57 0 175.66 0h-53.32c-10.91 0-19.84 8.71-19.84 19.36s8.93 
        19.35 19.84 19.35H130v9.59a149 149 0 1 0 134.57 53.76zM149 306.26A110.17 
        110.17 0 1 1 259.17 196.1 110.17 110.17 0 0 1 149 306.26z" fill="#dedede"/>
    </g>
    <g width="253" height="253">
        <path d="M126.5 0A126.5 126.5 0 1 0 253 126.5 126.51 126.51 0 0 0 126.5 
        0zm0 237.22a110.17 110.17 0 1 1 110.17-110.17A110.18 110.18 0 0 1 126.5 
        237.22z" fill="#231f20"/>
    </g>

    <g width="105" height="70">
        <path fill-rule="evenodd"  fill="rgb(210, 40, 86)"
            d="M96.612,55.358 L96.612,69.561 L82.456,69.561 
            L82.456,55.358 L53.206,55.358 L53.206,45.280 L83.252,1.030 L96.612,1.030 
            L96.612,44.108 L104.862,44.108 L104.862,55.358 L96.612,55.358 
            ZM82.690,17.624 C81.533,20.187 80.143,22.686 78.518,25.124 
            L65.956,44.108 L82.456,44.108 L82.456,32.483 C82.456,30.546 82.533,27.733 
            82.690,24.046 C82.846,20.359 82.971,18.218 83.065,17.624 L82.690,17.624 
            ZM0.612,59.483 L17.815,42.093 C22.908,36.874 26.236,33.257 27.799,31.241 
            C29.362,29.225 30.487,27.358 31.174,25.639 C31.861,23.921 32.206,22.140 
            32.206,20.296 C32.206,17.546 31.448,15.499 29.932,14.155 C28.416,12.812 
            26.393,12.139 23.862,12.139 C21.205,12.139 18.627,12.749 16.128,13.968 
            C13.627,15.186 11.018,16.921 8.299,19.171 L0.424,9.843 C3.799,6.968 
            6.596,4.937 8.815,3.749 C11.034,2.562 13.456,1.648 16.081,1.007 
            C18.706,0.367 21.643,0.046 24.893,0.046 C29.174,0.046 32.956,0.827 
            36.237,2.389 C39.518,3.952 42.065,6.140 43.878,8.952 C45.690,11.764 
            46.596,14.983 46.596,18.608 C46.596,21.765 46.041,24.725 44.932,27.491 
            C43.823,30.257 42.104,33.093 39.776,35.999 C37.448,38.905 33.346,43.046 
            27.471,48.421 L18.659,56.718 L18.659,57.374 L48.518,57.374 L48.518,69.561 
            L0.612,69.561 L0.612,59.483 Z"/>
    </g>
</svg>